<svg width="5" height="5" viewBox="0 0 5 5" fill="none" xmlns="http://www.w3.org/2000/svg">
<g clip-path="url(#clip0_210_7)">
<path d="M4.0625 2.03125C4.0625 2.47949 3.91699 2.89355 3.67188 3.22949L4.9082 4.4668C5.03027 4.58887 5.03027 4.78711 4.9082 4.90918C4.78613 5.03125 4.58789 5.03125 4.46582 4.90918L3.22949 3.67188C2.89355 3.91797 2.47949 4.0625 2.03125 4.0625C0.90918 4.0625 0 3.15332 0 2.03125C0 0.90918 0.90918 0 2.03125 0C3.15332 0 4.0625 0.90918 4.0625 2.03125ZM2.03125 3.4375C2.21592 3.4375 2.39878 3.40113 2.5694 3.33046C2.74001 3.25978 2.89504 3.1562 3.02562 3.02562C3.1562 2.89504 3.25978 2.74001 3.33046 2.5694C3.40113 2.39878 3.4375 2.21592 3.4375 2.03125C3.4375 1.84658 3.40113 1.66372 3.33046 1.4931C3.25978 1.32249 3.1562 1.16746 3.02562 1.03688C2.89504 0.906299 2.74001 0.802715 2.5694 0.732044C2.39878 0.661374 2.21592 0.625 2.03125 0.625C1.84658 0.625 1.66372 0.661374 1.4931 0.732044C1.32249 0.802715 1.16746 0.906299 1.03688 1.03688C0.906299 1.16746 0.802715 1.32249 0.732044 1.4931C0.661374 1.66372 0.625 1.84658 0.625 2.03125C0.625 2.21592 0.661374 2.39878 0.732044 2.5694C0.802715 2.74001 0.906299 2.89504 1.03688 3.02562C1.16746 3.1562 1.32249 3.25978 1.4931 3.33046C1.66372 3.40113 1.84658 3.4375 2.03125 3.4375Z" fill="#626262"/>
</g>
<defs>
<clipPath id="clip0_210_7">
<rect width="5" height="5" fill="white"/>
</clipPath>
</defs>
</svg>
